%TF.GenerationSoftware,KiCad,Pcbnew,10.0.6*%
%TF.CreationDate,2026-10-04T16:41:18-04:00*%
%TF.ProjectId,Reflex,5265666c-6578-42e6-9b69-6361645f7063,rev?*%
%TF.SameCoordinates,Original*%
%TF.FileFunction,Soldermask,Bot*%
%TF.FilePolarity,Negative*%
%FSLAX46Y46*%
G04 Gerber Fmt 4.6, Leading zero omitted, Abs format (unit mm)*
G04 Created by KiCad (PCBNEW 10.0.6) date 2026-10-04 16:41:18*
%MOMM*%
%LPD*%
G01*
G04 APERTURE LIST*
G04 Aperture macros list*
%AMRoundRect*
0 Rectangle with rounded corners*
0 $1 Rounding radius*
0 $2 $3 $4 $5 $6 $7 $8 $9 X,Y pos of 4 corners*
0 Add a 4 corners polygon primitive as box body*
4,1,4,$2,$3,$4,$5,$6,$7,$8,$9,$2,$3,0*
0 Add four circle primitives for the rounded corners*
1,1,$1+$1,$2,$3*
1,1,$1+$1,$4,$5*
1,1,$1+$1,$6,$7*
1,1,$1+$1,$8,$9*
0 Add four rect primitives between the rounded corners*
20,1,$1+$1,$2,$3,$4,$5,0*
20,1,$1+$1,$4,$5,$6,$7,0*
20,1,$1+$1,$6,$7,$8,$9,0*
20,1,$1+$1,$8,$9,$2,$3,0*%
%AMFreePoly0*
4,1,37,0.603843,0.796157,0.639018,0.796157,0.711114,0.766294,0.766294,0.711114,0.796157,0.639018,0.796157,0.603843,0.800000,0.600000,0.800000,-0.600000,0.796157,-0.603843,0.796157,-0.639018,0.766294,-0.711114,0.711114,-0.766294,0.639018,-0.796157,0.603843,-0.796157,0.600000,-0.800000,0.000000,-0.800000,0.000000,-0.796148,-0.078414,-0.796148,-0.232228,-0.765552,-0.377117,-0.705537,
-0.507515,-0.618408,-0.618408,-0.507515,-0.705537,-0.377117,-0.765552,-0.232228,-0.796148,-0.078414,-0.796148,0.078414,-0.765552,0.232228,-0.705537,0.377117,-0.618408,0.507515,-0.507515,0.618408,-0.377117,0.705537,-0.232228,0.765552,-0.078414,0.796148,0.000000,0.796148,0.000000,0.800000,0.600000,0.800000,0.603843,0.796157,0.603843,0.796157,$1*%
%AMFreePoly1*
4,1,37,0.000000,0.796148,0.078414,0.796148,0.232228,0.765552,0.377117,0.705537,0.507515,0.618408,0.618408,0.507515,0.705537,0.377117,0.765552,0.232228,0.796148,0.078414,0.796148,-0.078414,0.765552,-0.232228,0.705537,-0.377117,0.618408,-0.507515,0.507515,-0.618408,0.377117,-0.705537,0.232228,-0.765552,0.078414,-0.796148,0.000000,-0.796148,0.000000,-0.800000,-0.600000,-0.800000,
-0.603843,-0.796157,-0.639018,-0.796157,-0.711114,-0.766294,-0.766294,-0.711114,-0.796157,-0.639018,-0.796157,-0.603843,-0.800000,-0.600000,-0.800000,0.600000,-0.796157,0.603843,-0.796157,0.639018,-0.766294,0.711114,-0.711114,0.766294,-0.639018,0.796157,-0.603843,0.796157,-0.600000,0.800000,0.000000,0.800000,0.000000,0.796148,0.000000,0.796148,$1*%
G04 Aperture macros list end*
%ADD10RoundRect,0.200000X-0.600000X-0.600000X0.600000X-0.600000X0.600000X0.600000X-0.600000X0.600000X0*%
%ADD11C,1.600000*%
%ADD12FreePoly0,0.000000*%
%ADD13FreePoly1,0.000000*%
%ADD14R,1.800000X1.800000*%
%ADD15C,1.800000*%
%ADD16C,2.000000*%
G04 APERTURE END LIST*
D10*
%TO.C,A1*%
X111000000Y-93500000D03*
D11*
X111000000Y-96040000D03*
D12*
X111000000Y-98580000D03*
D11*
X111000000Y-101120000D03*
X111000000Y-103660000D03*
X111000000Y-106200000D03*
X111000000Y-108740000D03*
D12*
X111000000Y-111280000D03*
D11*
X111000000Y-113820000D03*
X111000000Y-116360000D03*
X111000000Y-118900000D03*
X111000000Y-121440000D03*
D12*
X111000000Y-123980000D03*
D11*
X111000000Y-126520000D03*
X111000000Y-129060000D03*
X111000000Y-131600000D03*
X111000000Y-134140000D03*
D12*
X111000000Y-136680000D03*
D11*
X111000000Y-139220000D03*
X111000000Y-141760000D03*
X128780000Y-141760000D03*
X128780000Y-139220000D03*
D13*
X128780000Y-136680000D03*
D11*
X128780000Y-134140000D03*
X128780000Y-131600000D03*
X128780000Y-129060000D03*
X128780000Y-126520000D03*
D13*
X128780000Y-123980000D03*
D11*
X128780000Y-121440000D03*
X128780000Y-118900000D03*
X128780000Y-116360000D03*
X128780000Y-113820000D03*
D13*
X128780000Y-111280000D03*
D11*
X128780000Y-108740000D03*
X128780000Y-106200000D03*
X128780000Y-103660000D03*
X128780000Y-101120000D03*
D13*
X128780000Y-98580000D03*
D11*
X128780000Y-96040000D03*
X128780000Y-93500000D03*
%TD*%
D14*
%TO.C,D1*%
X134225000Y-124500000D03*
D15*
X136765000Y-124500000D03*
%TD*%
D16*
%TO.C,SW1*%
X105250000Y-129250000D03*
X105250000Y-135750000D03*
X100750000Y-129250000D03*
X100750000Y-135750000D03*
%TD*%
D11*
%TO.C,R1*%
X134500000Y-130420000D03*
X134500000Y-140580000D03*
%TD*%
M02*
