M48
; DRILL file KiCad 10.0.6 date 2026-10-04T16:40:35
; FORMAT={-:-/ absolute / metric / decimal}
; #@! TF.CreationDate,2026-10-04T16:40:35-04:00
; #@! TF.GenerationSoftware,Kicad,Pcbnew,10.0.6
; #@! TF.FileFunction,Plated,1,2,PTH
FMAT,2
METRIC
; #@! TA.AperFunction,Plated,PTH,ComponentDrill
T1C0.800
; #@! TA.AperFunction,Plated,PTH,ComponentDrill
T2C0.900
; #@! TA.AperFunction,Plated,PTH,ComponentDrill
T3C1.000
; #@! TA.AperFunction,Plated,PTH,ComponentDrill
T4C1.100
%
G90
G05
T1
X134.5Y-130.42
X134.5Y-140.58
T2
X134.225Y-124.5
X136.765Y-124.5
T3
X111.0Y-93.5
X111.0Y-96.04
X111.0Y-98.58
X111.0Y-101.12
X111.0Y-103.66
X111.0Y-106.2
X111.0Y-108.74
X111.0Y-111.28
X111.0Y-113.82
X111.0Y-116.36
X111.0Y-118.9
X111.0Y-121.44
X111.0Y-123.98
X111.0Y-126.52
X111.0Y-129.06
X111.0Y-131.6
X111.0Y-134.14
X111.0Y-136.68
X111.0Y-139.22
X111.0Y-141.76
X128.78Y-93.5
X128.78Y-96.04
X128.78Y-98.58
X128.78Y-101.12
X128.78Y-103.66
X128.78Y-106.2
X128.78Y-108.74
X128.78Y-111.28
X128.78Y-113.82
X128.78Y-116.36
X128.78Y-118.9
X128.78Y-121.44
X128.78Y-123.98
X128.78Y-126.52
X128.78Y-129.06
X128.78Y-131.6
X128.78Y-134.14
X128.78Y-136.68
X128.78Y-139.22
X128.78Y-141.76
T4
X100.75Y-129.25
X100.75Y-135.75
X105.25Y-129.25
X105.25Y-135.75
M30
